<!DOCTYPE svg PUBLIC "-//W3C//DTD SVG 1.1//EN" "http://www.w3.org/Graphics/SVG/1.1/DTD/svg11.dtd">
<!-- Uploaded to: SVG Repo, www.svgrepo.com, Transformed by: SVG Repo Mixer Tools -->
<svg fill="#ED8107" version="1.1" id="Layer_1" xmlns="http://www.w3.org/2000/svg" xmlns:xlink="http://www.w3.org/1999/xlink" viewBox="0 0 512.00 512.00" xml:space="preserve" stroke="#ED8107">

<g id="SVGRepo_bgCarrier" stroke-width="0"/>

<g id="SVGRepo_tracerCarrier" stroke-linecap="round" stroke-linejoin="round" stroke="#CCCCCC" stroke-width="2.0480039999999997"/>

<g id="SVGRepo_iconCarrier"> <g> <g> <g> <path d="M433.416,396.756c-3.024,0-5.907,1.279-7.936,3.522c-6.359,7.026-38.082,43.216-38.082,65.704 c0,25.376,20.643,46.019,46.018,46.019s46.019-20.644,46.019-46.019c0-22.489-31.724-58.678-38.083-65.704 C439.323,398.034,436.439,396.756,433.416,396.756z M433.416,490.592c-13.57,0-24.61-11.04-24.61-24.611 c0-7.878,11.678-26.176,24.61-42.073c12.933,15.896,24.611,34.194,24.611,42.073 C458.027,479.552,446.987,490.592,433.416,490.592z"/> <path d="M482.721,289.004h-12.398v-75.462c0-20.657-16.806-37.463-37.463-37.463h-93.837v-7.849 c0-5.912-4.793-10.704-10.704-10.704h-42.815V77.603h60.388c13.919,0,25.243-11.325,25.243-25.243V33.271 c0-13.919-11.324-25.243-25.243-25.243h-67.549C271.095,2.826,262.383,0,253.391,0s-17.704,2.826-24.951,8.028h-67.549 c-13.919,0-25.243,11.325-25.243,25.243v19.088c0,13.919,11.324,25.243,25.243,25.243h60.388v79.922h-42.815 c-5.911,0-10.704,4.792-10.704,10.704v7.849H93.503V101.15c0-5.912-4.793-10.704-10.704-10.704H29.28 c-5.911,0-10.704,4.792-10.704,10.704v224.781c0,5.912,4.793,10.704,10.704,10.704H82.8c5.911,0,10.704-4.792,10.704-10.704 v-74.927h74.257v8.207c0,5.912,4.793,10.704,10.704,10.704h149.854c5.911,0,10.704-4.792,10.704-10.704v-8.206h56.374v37.999 h-14.361c-5.911,0-10.704,4.792-10.704,10.704v53.519c0,5.912,4.793,10.704,10.704,10.704h101.686 c5.911,0,10.704-4.792,10.704-10.704v-53.519C493.425,293.796,488.631,289.004,482.721,289.004z M72.096,315.228H39.984V111.855 h32.112V315.228z M167.76,229.597H93.503v-32.112h74.257V229.597z M160.892,56.194c-2.115,0.001-3.835-1.719-3.835-3.834V33.271 c0-2.115,1.72-3.835,3.835-3.835h71.27c2.607,0,5.125-0.952,7.081-2.676c3.911-3.451,8.937-5.352,14.148-5.352 c5.212,0,10.236,1.9,14.148,5.352c1.956,1.724,4.474,2.676,7.081,2.676h71.27c2.115,0,3.835,1.72,3.835,3.835v19.088 c0,2.115-1.72,3.835-3.835,3.835h-71.27c-2.607,0-5.125,0.952-7.081,2.676c-3.911,3.451-8.937,5.352-14.148,5.352 c-5.212,0-10.236-1.9-14.148-5.352c-1.956-1.724-4.474-2.676-7.081-2.676H160.892z M264.095,84.263v73.261h-21.408V84.263 c3.47,0.897,7.063,1.368,10.704,1.368S260.625,85.16,264.095,84.263z M317.614,248.508H189.168v-24.084h31.755 c5.911,0,10.704-4.792,10.704-10.704c0-5.912-4.793-10.704-10.704-10.704h-31.755v-24.084h128.446V248.508z M339.022,229.597 v-32.112h93.837c8.853,0,16.056,7.203,16.056,16.056v75.462h-32.112v-48.702c0-5.912-4.793-10.704-10.704-10.704H339.022z M472.017,342.523h-80.279v-32.112h80.279V342.523z"/> <path d="M268.734,224.245h2.476c5.911,0,10.704-4.792,10.704-10.704s-4.793-10.704-10.704-10.704h-2.476 c-5.911,0-10.704,4.792-10.704,10.704S262.822,224.245,268.734,224.245z"/> </g> </g> </g> </g>

</svg>